<?xml version="1.0" encoding="UTF-8"?>
<svg id="Ebene_1" data-name="Ebene 1" xmlns="http://www.w3.org/2000/svg" viewBox="0 0 557.2 348.9">
  <defs>
    <style>
      .cls-1 {
        fill: #9a1915;
      }

      .cls-2 {
        fill: #3c3c3b;
      }
    </style>
  </defs>
  <g>
    <g>
      <path class="cls-2" d="M196.4,253.3l-2.1-.6v-22.8l2.1.6v22.8Z"/>
      <path class="cls-2" d="M211.8,253.5h0l6.8-17.1,3.2.8v22.8l-2.1-.6v-19.8h-.1l-7.3,17.9-1.1-.3-7.3-21.8h-.1v19.8l-2.1-.6v-22.8l3.2.8,6.9,20.9Z"/>
      <path class="cls-2" d="M237.2,260.3h0l6.8-17.1,3.2.8v22.8l-2.1-.6v-19.7h-.1l-7.3,17.9-1.1-.3-7.3-21.8h-.1v19.8l-2.1-.6v-22.8l3.2.8,6.9,20.8Z"/>
      <path class="cls-2" d="M272.6,262.3c0,1.7-.3,3.3-.8,4.6-.5,1.3-1.3,2.4-2.2,3.2-.9.8-2.1,1.3-3.4,1.6-1.3.3-2.7.2-4.2-.2-1.5-.4-2.9-1.1-4.2-2-1.3-.9-2.4-2.1-3.4-3.4-.9-1.3-1.7-2.8-2.2-4.4s-.8-3.3-.8-5,.3-3.3.8-4.6c.5-1.3,1.3-2.4,2.2-3.2.9-.8,2.1-1.3,3.4-1.6,1.3-.3,2.7-.2,4.2.2,1.5.4,2.9,1.1,4.2,2,1.3.9,2.4,2.1,3.4,3.4.9,1.3,1.7,2.8,2.2,4.4s.8,3.2.8,5ZM270.4,261.7c0-1.3-.2-2.6-.6-4-.4-1.3-.9-2.5-1.7-3.6-.7-1.1-1.6-2.1-2.6-2.9s-2.2-1.4-3.5-1.7c-1.3-.3-2.5-.4-3.5-.1s-1.9.7-2.7,1.5c-.7.7-1.3,1.6-1.7,2.7-.4,1.1-.6,2.3-.6,3.6s.2,2.6.6,4c.4,1.3.9,2.5,1.7,3.6.7,1.1,1.6,2.1,2.7,2.9,1,.8,2.2,1.4,3.5,1.7,1.3.3,2.5.4,3.5.1s1.9-.7,2.6-1.4c.7-.7,1.3-1.6,1.7-2.7.4-1.2.6-2.4.6-3.7Z"/>
      <path class="cls-2" d="M276.9,252l6,1.6c.8.2,1.5.5,2.3.9s1.5.9,2.1,1.5,1.1,1.3,1.5,2.2c.4.9.6,1.9.6,3,0,1.2-.3,2.2-1,2.9-.7.7-1.5,1.1-2.6,1.1v.1c1.3.5,2.4,1.4,3.3,2.6s1.3,2.7,1.3,4.3c0,.9-.2,1.8-.5,2.5-.4.7-.9,1.2-1.5,1.6s-1.4.6-2.4.6c-.9.1-2-.1-3.1-.4l-6-1.6v-22.9h0ZM279,262.6l4.2,1.1c.5.1,1,.2,1.5.2s1-.1,1.4-.3c.4-.2.8-.5,1-1,.3-.4.4-1,.4-1.8,0-.7-.1-1.4-.4-2s-.6-1.1-1-1.5-1-.8-1.5-1.1c-.6-.3-1.2-.5-1.9-.7l-3.6-1v8.1h-.1ZM279,273.4l3.8,1c.7.2,1.5.3,2.1.3.7,0,1.3-.1,1.8-.3.5-.2.9-.6,1.2-1.1.3-.5.5-1.1.5-1.9,0-1.5-.5-2.7-1.4-3.7s-2.2-1.7-3.9-2.1l-4.2-1.1v8.9h.1Z"/>
      <path class="cls-2" d="M297.2,280.3l-2.1-.6v-22.8l2.1.6v22.8Z"/>
      <path class="cls-2" d="M304.6,280.2l9.5,2.5v2.1l-11.5-3.1v-22.8l2.1.6v20.7h-.1Z"/>
      <path class="cls-2" d="M319.2,286.2l-2.1-.6v-22.8l2.1.6v22.8Z"/>
      <path class="cls-2" d="M326.7,286.1l10.9,2.9v2.1l-12.9-3.5v-22.8l12.6,3.4v2.1l-10.5-2.8v7.8l9.8,2.6v2.1l-9.8-2.6v8.7h-.1Z"/>
      <path class="cls-2" d="M356,292.6h0l.1-19.4,2.1.6v22.8l-2.6-.7-11.8-22.8h-.1v19.6l-2.1-.6v-22.8l2.6.7,11.8,22.6Z"/>
      <path class="cls-2" d="M376.3,298.5h0l6.6-18,2.2.6-7.8,20.7-2.2-.6-7.7-24.9,2.2.6,6.7,21.6Z"/>
      <path class="cls-2" d="M390,303.1l10.9,2.9v2.1l-12.9-3.5v-22.8l12.6,3.4v2.1l-10.5-2.8v7.8l9.8,2.6v2.1l-9.8-2.6v8.7h-.1Z"/>
      <path class="cls-2" d="M407,309.7l-2.1-.6v-22.8l6,1.6c1,.3,1.9.6,2.8,1.1.9.4,1.6,1,2.2,1.6s1.1,1.4,1.4,2.3.5,1.9.5,3c0,.8-.1,1.6-.4,2.2s-.6,1.1-1.1,1.5-1,.6-1.6.8c-.6.1-1.3.1-2.1,0l5.9,12.5-2.5-.7-5.6-12.2-3.4-.9v10.6h0ZM407,297l3.6,1c1.7.4,2.9.4,3.8,0s1.3-1.3,1.3-2.7c0-.8-.1-1.4-.4-2-.2-.6-.6-1.1-1-1.5s-1-.8-1.6-1.1c-.6-.3-1.3-.6-2.1-.8l-3.7-1v8.1h.1Z"/>
      <path class="cls-2" d="M427,311.9h0l5.1-18.3,2.5.7,5.1,21h.1l5-18.3,2.2.6-6,21.2-2.4-.6-5.1-21h-.1l-5.1,18.2-2.4-.6-6-24.4,2.2.6,4.9,20.9Z"/>
      <path class="cls-2" d="M449.5,321.1l-2.3-.6,8.8-20.5,2,.5,8.7,25.2-2.3-.6-2.3-6.6-10.5-2.8-2.1,5.4ZM452.4,313.7l8.9,2.4-4.5-13.3-4.4,10.9Z"/>
      <path class="cls-2" d="M471.7,325l9.5,2.5v2.1l-11.5-3.1v-22.8l2.1.6v20.7h-.1Z"/>
      <path class="cls-2" d="M488,331.4l-2.1-.6v-20.8l-6.8-1.8v-2.1l15.6,4.2v2.1l-6.8-1.8v20.8h.1Z"/>
      <path class="cls-2" d="M505.3,336.6c-1.5-.4-2.8-1-3.8-1.9s-1.7-1.8-2.3-2.9-1-2.1-1.2-3.3c-.2-1.1-.3-2.2-.3-3.1v-14.3l2.1.6v14.1c0,.9.1,1.8.3,2.8.2.9.5,1.8.9,2.6.4.8,1,1.5,1.7,2.1s1.6,1,2.6,1.3,1.9.3,2.6.1c.7-.2,1.3-.6,1.7-1.2s.7-1.3.9-2.1c.2-.8.3-1.7.3-2.6v-14.1l2.1.6v14.3c0,.9-.1,1.9-.3,2.9s-.6,1.9-1.2,2.6c-.6.7-1.4,1.3-2.3,1.6s-2.3.3-3.8-.1Z"/>
      <path class="cls-2" d="M532.6,340h0l.1-19.4,2.1.6v22.8l-2.6-.7-11.8-22.8h-.1v19.6l-2.1-.6v-22.8l2.6.7,11.8,22.6Z"/>
      <path class="cls-2" d="M555.5,330.8c-.7-1-1.5-1.9-2.5-2.6s-2.1-1.3-3.4-1.6c-1.3-.3-2.5-.4-3.5-.1s-1.9.7-2.6,1.5c-.7.7-1.3,1.6-1.7,2.7s-.6,2.3-.6,3.6.2,2.6.6,4c.4,1.3,1,2.5,1.7,3.6s1.6,2.1,2.6,2.9,2.2,1.4,3.5,1.7c1.1.3,2.2.4,3.2.4s1.7-.2,2.3-.4v-7l-4.7-1.3v-2.1l6.8,1.8v10.3c-1.1.5-2.3.7-3.6.7s-2.6-.2-4-.5c-1.5-.4-2.9-1.1-4.2-2s-2.4-2.1-3.4-3.4c-.9-1.3-1.7-2.8-2.2-4.4s-.8-3.3-.8-5,.3-3.3.8-4.6c.5-1.3,1.3-2.4,2.2-3.2.9-.8,2.1-1.3,3.4-1.6,1.3-.3,2.7-.2,4.2.2,1.6.4,3,1.1,4.2,2s2.2,1.9,3.1,3.1l-1.4,1.3Z"/>
    </g>
    <polygon class="cls-1" points="557.2 221.2 194.2 123.9 194.2 87.7 557.2 184.9 557.2 221.2"/>
    <polygon class="cls-1" points="557.2 266.3 194.2 169.1 194.2 132.8 557.2 230 557.2 266.3"/>
    <polygon class="cls-1" points="557.2 311.5 194.2 214.2 194.2 177.9 557.2 275.2 557.2 311.5"/>
  </g>
  <g>
    <path class="cls-1" d="M.1,300l15-2.6c2.8-.5,5.6-.6,8.4-.4,2.8.3,5.4.9,7.6,2.1,2.3,1.1,4.1,2.7,5.5,4.7s2.1,4.5,2.1,7.5-.7,5.8-2.1,8.3-3.2,4.7-5.5,6.6-4.8,3.5-7.6,4.8-5.6,2.1-8.4,2.6l-15,2.6v-36.2ZM4.7,332.2l9.1-1.6c3.4-.6,6.4-1.5,8.9-2.8,2.5-1.3,4.6-2.8,6.3-4.5s2.9-3.5,3.7-5.4,1.2-3.8,1.2-5.7-.4-3.6-1.2-5.3c-.8-1.6-2.1-3-3.7-4.1-1.7-1.1-3.7-1.8-6.3-2.3-2.5-.4-5.5-.3-8.9.3l-9.1,1.6s0,29.8,0,29.8Z"/>
    <path class="cls-1" d="M46.5,328.1l-5,.9,19.5-39.7,4.5-.8,19.4,32.9-5.1.9-5-8.7-23.3,4.1-5,10.4ZM53.1,314l19.9-3.5-9.9-17.5-10,21Z"/>
    <path class="cls-1" d="M91.4,283.9l4.6-.8v15.7l24.6-4.3v-15.7l4.6-.8v36.3l-4.6.8v-17.2l-24.6,4.3v17.2l-4.6.8v-36.3Z"/>
    <path class="cls-1" d="M159.5,301.9h0l15.2-32.7,7-1.2v36.3l-4.6.8v-31.6h-.1l-16.3,34.4-2.4.4-16.3-28.6h-.1v31.5l-4.6.8v-36.3l7-1.2,15.2,27.4Z"/>
  </g>
  <polygon class="cls-1" points="181.5 90.5 0 121.1 0 120.8 181.5 87.4 181.5 90.5"/>
  <polygon class="cls-1" points="181.5 97.1 0 127.7 0 127.5 181.5 94.1 181.5 97.1"/>
  <polygon class="cls-1" points="181.5 103.8 0 134.4 0 134.1 181.5 100.7 181.5 103.8"/>
  <polygon class="cls-1" points="181.5 110.4 0 141 0 140.8 181.5 107.4 181.5 110.4"/>
  <polygon class="cls-1" points="181.5 117.1 0 147.7 0 147.4 181.5 114 181.5 117.1"/>
  <polygon class="cls-1" points="181.5 123.7 0 154.3 0 154.1 181.5 120.7 181.5 123.7"/>
  <g>
    <polygon class="cls-1" points="181.5 135.6 0 166.2 0 165.9 181.5 132.6 181.5 135.6"/>
    <polygon class="cls-1" points="181.5 142.2 0 172.8 0 172.6 181.5 139.2 181.5 142.2"/>
    <polygon class="cls-1" points="181.5 148.9 0 179.5 0 179.3 181.5 145.9 181.5 148.9"/>
    <polygon class="cls-1" points="181.5 155.5 0 186.2 0 185.9 181.5 152.5 181.5 155.5"/>
    <polygon class="cls-1" points="181.5 162.2 0 192.8 0 192.6 181.5 159.2 181.5 162.2"/>
    <polygon class="cls-1" points="181.5 168.9 0 199.5 0 199.2 181.5 165.8 181.5 168.9"/>
  </g>
  <g>
    <polygon class="cls-1" points="181.5 180.7 0 211.3 0 211.1 181.5 177.7 181.5 180.7"/>
    <polygon class="cls-1" points="181.5 187.4 0 218 0 217.7 181.5 184.3 181.5 187.4"/>
    <polygon class="cls-1" points="181.5 194 0 224.6 0 224.4 181.5 191 181.5 194"/>
    <polygon class="cls-1" points="181.5 200.7 0 231.3 0 231 181.5 197.6 181.5 200.7"/>
    <polygon class="cls-1" points="181.5 207.3 0 237.9 0 237.7 181.5 204.3 181.5 207.3"/>
    <polygon class="cls-1" points="181.5 214 0 244.6 0 244.3 181.5 211 181.5 214"/>
  </g>
  <polygon class="cls-1" points="181.5 225.8 0 256.4 0 256.2 181.5 222.8 181.5 225.8"/>
  <polygon class="cls-1" points="181.5 232.5 0 263.1 0 262.9 181.5 229.5 181.5 232.5"/>
  <polygon class="cls-1" points="181.5 239.1 0 269.8 0 269.5 181.5 236.1 181.5 239.1"/>
  <polygon class="cls-1" points="181.5 245.8 0 276.4 0 276.2 181.5 242.8 181.5 245.8"/>
  <polygon class="cls-1" points="181.5 252.5 0 283.1 0 282.8 181.5 249.4 181.5 252.5"/>
  <polygon class="cls-1" points="181.5 259.1 0 289.7 0 289.5 181.5 256.1 181.5 259.1"/>
  <g>
    <polygon class="cls-1" points="174.2 0 .8 100.8 157.7 74.3 36.4 87.7 174.2 0"/>
    <polygon class="cls-1" points="174.2 0 487 94.1 554.5 167.2 480.8 100.7 174.2 0"/>
    <polygon class="cls-1" points="469.6 145.9 187.7 69.1 175.7 5.2 191.7 65.7 469.6 145.9"/>
  </g>
</svg>