<?xml version="1.0" encoding="UTF-8"?>
<svg id="Ebene_1" xmlns="http://www.w3.org/2000/svg" version="1.1" viewBox="0 0 600 600">
  <!-- Generator: Adobe Illustrator 29.5.1, SVG Export Plug-In . SVG Version: 2.1.0 Build 141)  -->
  <defs>
    <style>
      .st0 {
        fill: #9a1915;
      }

      .st1 {
        fill: #3c3c3b;
      }
    </style>
  </defs>
  <g>
    <g>
      <path class="st1" d="M217.7,381.3l-2.1-.6v-22.8l2.1.6v22.8Z"/>
      <path class="st1" d="M233.1,381.5h0l6.8-17.1,3.2.8v22.8l-2.1-.6v-19.8h-.1l-7.3,17.9-1.1-.3-7.3-21.8h-.1v19.8l-2.1-.6v-22.8l3.2.8,6.9,20.9h0Z"/>
      <path class="st1" d="M258.5,388.3h0l6.8-17.1,3.2.8v22.8l-2.1-.6v-19.7h-.1l-7.3,17.9-1.1-.3-7.3-21.8h-.1v19.8l-2.1-.6v-22.8l3.2.8,6.9,20.8h0Z"/>
      <path class="st1" d="M293.9,390.3c0,1.7-.3,3.3-.8,4.6-.5,1.3-1.3,2.4-2.2,3.2-.9.8-2.1,1.3-3.4,1.6-1.3.3-2.7.2-4.2-.2-1.5-.4-2.9-1.1-4.2-2-1.3-.9-2.4-2.1-3.4-3.4-.9-1.3-1.7-2.8-2.2-4.4s-.8-3.3-.8-5,.3-3.3.8-4.6c.5-1.3,1.3-2.4,2.2-3.2.9-.8,2.1-1.3,3.4-1.6,1.3-.3,2.7-.2,4.2.2,1.5.4,2.9,1.1,4.2,2,1.3.9,2.4,2.1,3.4,3.4.9,1.3,1.7,2.8,2.2,4.4s.8,3.2.8,5ZM291.6,389.7c0-1.3-.2-2.6-.6-4-.4-1.3-.9-2.5-1.7-3.6-.7-1.1-1.6-2.1-2.6-2.9s-2.2-1.4-3.5-1.7c-1.3-.3-2.5-.4-3.5-.1s-1.9.7-2.7,1.5c-.7.7-1.3,1.6-1.7,2.7-.4,1.1-.6,2.3-.6,3.6s.2,2.6.6,4c.4,1.3.9,2.5,1.7,3.6.7,1.1,1.6,2.1,2.7,2.9,1,.8,2.2,1.4,3.5,1.7,1.3.3,2.5.4,3.5.1s1.9-.7,2.6-1.4c.7-.7,1.3-1.6,1.7-2.7.4-1.2.6-2.4.6-3.7Z"/>
      <path class="st1" d="M298.1,380l6,1.6c.8.2,1.5.5,2.3.9s1.5.9,2.1,1.5,1.1,1.3,1.5,2.2c.4.9.6,1.9.6,3s-.3,2.2-1,2.9c-.7.7-1.5,1.1-2.6,1.1h0c1.3.6,2.4,1.5,3.3,2.7s1.3,2.7,1.3,4.3-.2,1.8-.5,2.5c-.4.7-.9,1.2-1.5,1.6s-1.4.6-2.4.6c-.9.1-2-.1-3.1-.4l-6-1.6v-22.9h0ZM300.2,390.6l4.2,1.1c.5.1,1,.2,1.5.2s1-.1,1.4-.3c.4-.2.8-.5,1-1,.3-.4.4-1,.4-1.8s-.1-1.4-.4-2-.6-1.1-1-1.5-1-.8-1.5-1.1c-.6-.3-1.2-.5-1.9-.7l-3.6-1v8.1h-.1ZM300.2,401.4l3.8,1c.7.2,1.5.3,2.1.3s1.3-.1,1.8-.3c.5-.2.9-.6,1.2-1.1.3-.5.5-1.1.5-1.9,0-1.5-.5-2.7-1.4-3.7s-2.2-1.7-3.9-2.1l-4.2-1.1v8.9h.1Z"/>
      <path class="st1" d="M318.5,408.3l-2.1-.6v-22.8l2.1.6v22.8Z"/>
      <path class="st1" d="M325.9,408.2l9.5,2.5v2.1l-11.5-3.1v-22.8l2.1.6v20.7h-.1Z"/>
      <path class="st1" d="M340.5,414.2l-2.1-.6v-22.8l2.1.6v22.8Z"/>
      <path class="st1" d="M348,414.1l10.9,2.9v2.1l-12.9-3.5v-22.8l12.6,3.4v2.1l-10.5-2.8v7.8l9.8,2.6v2.1l-9.8-2.6v8.7h-.1Z"/>
      <path class="st1" d="M377.2,420.6h0v-19.4c.1,0,2.2.6,2.2.6v22.8l-2.6-.7-11.8-22.8h-.1v19.6l-2.1-.6v-22.8l2.6.7,11.8,22.6h0Z"/>
      <path class="st1" d="M397.6,426.5h0l6.6-18,2.2.6-7.8,20.7-2.2-.6-7.7-24.9,2.2.6,6.7,21.6h0Z"/>
      <path class="st1" d="M411.2,431.1l10.9,2.9v2.1l-12.9-3.5v-22.8l12.6,3.4v2.1l-10.5-2.8v7.8l9.8,2.6v2.1l-9.8-2.6v8.7h-.1Z"/>
      <path class="st1" d="M428.2,437.7l-2.1-.6v-22.8l6,1.6c1,.3,1.9.6,2.8,1.1.9.4,1.6,1,2.2,1.6s1.1,1.4,1.4,2.3.5,1.9.5,3-.1,1.6-.4,2.2-.6,1.1-1.1,1.5-1,.6-1.6.8c-.6.1-1.3.1-2.1,0l5.9,12.5-2.5-.7-5.6-12.2-3.4-.9v10.6h0ZM428.2,425l3.6,1c1.7.4,2.9.4,3.8,0s1.3-1.3,1.3-2.7-.1-1.4-.4-2c-.2-.6-.6-1.1-1-1.5s-1-.8-1.6-1.1c-.6-.3-1.3-.6-2.1-.8l-3.7-1v8.1h.1Z"/>
      <path class="st1" d="M448.2,439.9h0l5.1-18.3,2.5.7,5.1,21h.1l5-18.3,2.2.6-6,21.2-2.4-.6-5.1-21h-.1l-5.1,18.2-2.4-.6-6-24.4,2.2.6,4.9,20.9h0Z"/>
      <path class="st1" d="M470.8,449.1l-2.3-.6,8.8-20.5,2,.5,8.7,25.2-2.3-.6-2.3-6.6-10.5-2.8-2.1,5.4h0ZM473.6,441.7l8.9,2.4-4.5-13.3-4.4,10.9Z"/>
      <path class="st1" d="M493,453l9.5,2.5v2.1l-11.5-3.1v-22.8l2.1.6v20.7h-.1Z"/>
      <path class="st1" d="M509.2,459.4l-2.1-.6v-20.8l-6.8-1.8v-2.1l15.6,4.2v2.1l-6.8-1.8v20.8h.1Z"/>
      <path class="st1" d="M526.6,464.6c-1.5-.4-2.8-1-3.8-1.9s-1.7-1.8-2.3-2.9-1-2.1-1.2-3.3c-.2-1.1-.3-2.2-.3-3.1v-14.3l2.1.6v14.1c0,.9,0,1.8.3,2.8.2.9.5,1.8.9,2.6.4.8,1,1.5,1.7,2.1s1.6,1,2.6,1.3,1.9.3,2.6.1c.7-.2,1.3-.6,1.7-1.2s.7-1.3.9-2.1c.2-.8.3-1.7.3-2.6v-14.1l2.1.6v14.3c0,.9,0,1.9-.3,2.9s-.6,1.9-1.2,2.6c-.6.7-1.4,1.3-2.3,1.6s-2.3.3-3.8-.1Z"/>
      <path class="st1" d="M553.9,468h0v-19.4l2.2.6v22.8l-2.6-.7-11.8-22.8h0v19.6l-2.1-.6v-22.8l2.6.7,11.8,22.6h-.1Z"/>
      <path class="st1" d="M576.8,458.8c-.7-1-1.5-1.9-2.5-2.6s-2.1-1.3-3.4-1.6c-1.3-.3-2.5-.4-3.5-.1s-1.9.7-2.6,1.5c-.7.7-1.3,1.6-1.7,2.7s-.6,2.3-.6,3.6.2,2.6.6,4c.4,1.3,1,2.5,1.7,3.6s1.6,2.1,2.6,2.9,2.2,1.4,3.5,1.7c1.1.3,2.2.4,3.2.4s1.7-.2,2.3-.4v-7l-4.7-1.3v-2.1l6.8,1.8v10.3c-1.1.5-2.3.7-3.6.7s-2.6-.2-4-.5c-1.5-.4-2.9-1.1-4.2-2s-2.4-2.1-3.4-3.4c-.9-1.3-1.7-2.8-2.2-4.4s-.8-3.3-.8-5,.3-3.3.8-4.6c.5-1.3,1.3-2.4,2.2-3.2.9-.8,2.1-1.3,3.4-1.6,1.3-.3,2.7-.2,4.2.2,1.6.4,3,1.1,4.2,2s2.2,1.9,3.1,3.1l-1.4,1.3h0Z"/>
    </g>
    <polygon class="st0" points="578.4 349.2 215.5 251.9 215.5 215.7 578.4 312.9 578.4 349.2"/>
    <polygon class="st0" points="578.4 394.3 215.5 297.1 215.5 260.8 578.4 358 578.4 394.3"/>
    <polygon class="st0" points="578.4 439.5 215.5 342.2 215.5 305.9 578.4 403.2 578.4 439.5"/>
  </g>
  <g>
    <path class="st0" d="M21.4,428l15-2.6c2.8-.5,5.6-.6,8.4-.4,2.8.3,5.4.9,7.6,2.1,2.3,1.1,4.1,2.7,5.5,4.7s2.1,4.5,2.1,7.5-.7,5.8-2.1,8.3-3.2,4.7-5.5,6.6-4.8,3.5-7.6,4.8-5.6,2.1-8.4,2.6l-15,2.6v-36.2ZM26,460.2l9.1-1.6c3.4-.6,6.4-1.5,8.9-2.8,2.5-1.3,4.6-2.8,6.3-4.5s2.9-3.5,3.7-5.4,1.2-3.8,1.2-5.7-.4-3.6-1.2-5.3c-.8-1.6-2.1-3-3.7-4.1-1.7-1.1-3.7-1.8-6.3-2.3-2.5-.4-5.5-.3-8.9.3l-9.1,1.6s0,29.8,0,29.8Z"/>
    <path class="st0" d="M67.8,456.1l-5,.9,19.5-39.7,4.5-.8,19.4,32.9-5.1.9-5-8.7-23.3,4.1-5,10.4h0ZM74.4,442l19.9-3.5-9.9-17.5-10,21Z"/>
    <path class="st0" d="M112.7,411.9l4.6-.8v15.7l24.6-4.3v-15.7l4.6-.8v36.3l-4.6.8v-17.2l-24.6,4.3v17.2l-4.6.8v-36.3Z"/>
    <path class="st0" d="M180.8,429.9h0l15.2-32.7,7-1.2v36.3l-4.6.8v-31.6h-.1l-16.3,34.4-2.4.4-16.3-28.6h-.1v31.5l-4.6.8v-36.3l7-1.2,15.2,27.4h0Z"/>
  </g>
  <polygon class="st0" points="202.8 218.5 21.3 249.1 21.3 248.8 202.8 215.4 202.8 218.5"/>
  <polygon class="st0" points="202.8 225.1 21.3 255.7 21.3 255.5 202.8 222.1 202.8 225.1"/>
  <polygon class="st0" points="202.8 231.8 21.3 262.4 21.3 262.1 202.8 228.7 202.8 231.8"/>
  <polygon class="st0" points="202.8 238.4 21.3 269 21.3 268.8 202.8 235.4 202.8 238.4"/>
  <polygon class="st0" points="202.8 245.1 21.3 275.7 21.3 275.4 202.8 242 202.8 245.1"/>
  <polygon class="st0" points="202.8 251.7 21.3 282.3 21.3 282.1 202.8 248.7 202.8 251.7"/>
  <g>
    <polygon class="st0" points="202.8 263.6 21.3 294.2 21.3 293.9 202.8 260.6 202.8 263.6"/>
    <polygon class="st0" points="202.8 270.2 21.3 300.8 21.3 300.6 202.8 267.2 202.8 270.2"/>
    <polygon class="st0" points="202.8 276.9 21.3 307.5 21.3 307.3 202.8 273.9 202.8 276.9"/>
    <polygon class="st0" points="202.8 283.5 21.3 314.2 21.3 313.9 202.8 280.5 202.8 283.5"/>
    <polygon class="st0" points="202.8 290.2 21.3 320.8 21.3 320.6 202.8 287.2 202.8 290.2"/>
    <polygon class="st0" points="202.8 296.9 21.3 327.5 21.3 327.2 202.8 293.8 202.8 296.9"/>
  </g>
  <g>
    <polygon class="st0" points="202.8 308.7 21.3 339.3 21.3 339.1 202.8 305.7 202.8 308.7"/>
    <polygon class="st0" points="202.8 315.4 21.3 346 21.3 345.7 202.8 312.3 202.8 315.4"/>
    <polygon class="st0" points="202.8 322 21.3 352.6 21.3 352.4 202.8 319 202.8 322"/>
    <polygon class="st0" points="202.8 328.7 21.3 359.3 21.3 359 202.8 325.6 202.8 328.7"/>
    <polygon class="st0" points="202.8 335.3 21.3 365.9 21.3 365.7 202.8 332.3 202.8 335.3"/>
    <polygon class="st0" points="202.8 342 21.3 372.6 21.3 372.3 202.8 339 202.8 342"/>
  </g>
  <polygon class="st0" points="202.8 353.8 21.3 384.4 21.3 384.2 202.8 350.8 202.8 353.8"/>
  <polygon class="st0" points="202.8 360.5 21.3 391.1 21.3 390.9 202.8 357.5 202.8 360.5"/>
  <polygon class="st0" points="202.8 367.1 21.3 397.8 21.3 397.5 202.8 364.1 202.8 367.1"/>
  <polygon class="st0" points="202.8 373.8 21.3 404.4 21.3 404.2 202.8 370.8 202.8 373.8"/>
  <polygon class="st0" points="202.8 380.5 21.3 411.1 21.3 410.8 202.8 377.4 202.8 380.5"/>
  <polygon class="st0" points="202.8 387.1 21.3 417.7 21.3 417.5 202.8 384.1 202.8 387.1"/>
  <g>
    <polygon class="st0" points="195.5 128 22.1 228.8 179 202.3 57.7 215.7 195.5 128"/>
    <polygon class="st0" points="195.5 128 508.2 222.1 575.8 295.2 502.1 228.7 195.5 128"/>
    <polygon class="st0" points="490.9 273.9 209 197.1 197 133.2 213 193.7 490.9 273.9"/>
  </g>
</svg>