<?xml version="1.0" encoding="UTF-8"?>
<svg id="Ebene_1" xmlns="http://www.w3.org/2000/svg" version="1.1" xmlns:xlink="http://www.w3.org/1999/xlink" viewBox="0 0 300 300">
  <!-- Generator: Adobe Illustrator 29.2.1, SVG Export Plug-In . SVG Version: 2.1.0 Build 116)  -->
  <defs>
    <style>
      .st0 {
        fill: #9a1915;
      }
    </style>
  </defs>
  <polygon class="st0" points="300 165.1 153 124.8 153 88.6 300 128.8 300 165.1"/>
  <polygon class="st0" points="300 210.2 153 170 153 133.7 300 173.9 300 210.2"/>
  <polygon class="st0" points="300 255.4 153 215.1 153 178.8 300 219.1 300 255.4"/>
  <polygon class="st0" points="299.9 299.7 152.9 259.4 152.9 223.1 299.9 263.4 299.9 299.7"/>
  <polygon class="st0" points="140.3 91.4 -.2 122 -.2 121.7 140.3 88.3 140.3 91.4"/>
  <polygon class="st0" points="140.3 98 -.2 128.6 -.2 128.4 140.3 95 140.3 98"/>
  <polygon class="st0" points="140.3 104.7 -.2 135.3 -.2 135 140.3 101.6 140.3 104.7"/>
  <polygon class="st0" points="140.3 111.3 -.2 141.9 -.2 141.7 140.3 108.3 140.3 111.3"/>
  <polygon class="st0" points="140.3 118 -.2 148.6 -.2 148.3 140.3 114.9 140.3 118"/>
  <polygon class="st0" points="140.3 124.6 -.2 155.2 -.2 155 140.3 121.6 140.3 124.6"/>
  <g>
    <polygon class="st0" points="140.3 136.5 -.2 167.1 -.2 166.8 140.3 133.5 140.3 136.5"/>
    <polygon class="st0" points="140.3 143.1 -.2 173.7 -.2 173.5 140.3 140.1 140.3 143.1"/>
    <polygon class="st0" points="140.3 149.8 -.2 180.4 -.2 180.2 140.3 146.8 140.3 149.8"/>
    <polygon class="st0" points="140.3 156.4 -.2 187.1 -.2 186.8 140.3 153.4 140.3 156.4"/>
    <polygon class="st0" points="140.3 163.1 -.2 193.7 -.2 193.5 140.3 160.1 140.3 163.1"/>
    <polygon class="st0" points="140.3 169.8 -.2 200.4 -.2 200.1 140.3 166.7 140.3 169.8"/>
  </g>
  <g>
    <polygon class="st0" points="140.3 181.6 -.2 212.2 -.2 212 140.3 178.6 140.3 181.6"/>
    <polygon class="st0" points="140.3 188.3 -.2 218.9 -.2 218.6 140.3 185.2 140.3 188.3"/>
    <polygon class="st0" points="140.3 194.9 -.2 225.5 -.2 225.3 140.3 191.9 140.3 194.9"/>
    <polygon class="st0" points="140.3 201.6 -.2 232.2 -.2 231.9 140.3 198.5 140.3 201.6"/>
    <polygon class="st0" points="140.3 208.2 -.2 238.8 -.2 238.6 140.3 205.2 140.3 208.2"/>
    <polygon class="st0" points="140.3 214.9 -.2 245.5 -.2 245.2 140.3 211.9 140.3 214.9"/>
  </g>
  <polygon class="st0" points="140.3 226.7 -.2 257.3 -.2 257.1 140.3 223.7 140.3 226.7"/>
  <polygon class="st0" points="140.3 233.4 -.2 264 -.2 263.8 140.3 230.4 140.3 233.4"/>
  <polygon class="st0" points="140.3 240 -.2 270.7 -.2 270.4 140.3 237 140.3 240"/>
  <polygon class="st0" points="140.3 246.7 -.2 277.3 -.2 277.1 140.3 243.7 140.3 246.7"/>
  <polygon class="st0" points="140.3 253.4 -.2 284 -.2 283.7 140.3 250.3 140.3 253.4"/>
  <polygon class="st0" points="140.3 260 -.2 290.6 -.2 290.4 140.3 257 140.3 260"/>
  <polygon class="st0" points="106 .9 .6 107.7 123.5 74.2 22.2 96.6 106 .9"/>
  <polygon class="st0" points="106 .9 243.8 31 300.3 115.1 239.6 34.6 106 .9"/>
  <polygon class="st0" points="299.4 114.8 147.5 72 108.5 6.1 151.5 69.6 299.4 114.8"/>
</svg>