<?xml version="1.0" encoding="utf-8"?>
<!-- Generator: Adobe Illustrator 27.8.0, SVG Export Plug-In . SVG Version: 6.00 Build 0)  -->
<svg version="1.1" id="Ebene_1" xmlns="http://www.w3.org/2000/svg" xmlns:xlink="http://www.w3.org/1999/xlink" x="0px" y="0px"
	 viewBox="0 0 595.3 379" style="enable-background:new 0 0 595.3 379;" xml:space="preserve">
<style type="text/css">
	.st0{fill:#3C3C3B;}
	.st1{fill:#9A1915;}
</style>
<g>
	<g>
		<path class="st0" d="M215.3,270.8l-2.1-0.6v-22.8l2.1,0.6V270.8z"/>
		<path class="st0" d="M230.7,271L230.7,271l6.8-17.1l3.2,0.8v22.8l-2.1-0.6v-19.8l-0.1,0l-7.3,17.9l-1.1-0.3l-7.3-21.8l-0.1,0v19.8
			l-2.1-0.6v-22.8l3.2,0.8L230.7,271z"/>
		<path class="st0" d="M256.1,277.8L256.1,277.8l6.8-17.1l3.2,0.8v22.8l-2.1-0.6V264l-0.1,0l-7.3,17.9l-1.1-0.3l-7.3-21.8l-0.1,0
			v19.8l-2.1-0.6v-22.8l3.2,0.8L256.1,277.8z"/>
		<path class="st0" d="M291.5,279.8c0,1.7-0.3,3.3-0.8,4.6c-0.5,1.3-1.3,2.4-2.2,3.2c-0.9,0.8-2.1,1.3-3.4,1.6
			c-1.3,0.3-2.7,0.2-4.2-0.2c-1.5-0.4-2.9-1.1-4.2-2c-1.3-0.9-2.4-2.1-3.4-3.4c-0.9-1.3-1.7-2.8-2.2-4.4c-0.5-1.6-0.8-3.3-0.8-5
			c0-1.7,0.3-3.3,0.8-4.6c0.5-1.3,1.3-2.4,2.2-3.2c0.9-0.8,2.1-1.3,3.4-1.6c1.3-0.3,2.7-0.2,4.2,0.2c1.5,0.4,2.9,1.1,4.2,2
			c1.3,0.9,2.4,2.1,3.4,3.4c0.9,1.3,1.7,2.8,2.2,4.4C291.2,276.4,291.5,278,291.5,279.8z M289.3,279.2c0-1.3-0.2-2.6-0.6-4
			c-0.4-1.3-0.9-2.5-1.7-3.6c-0.7-1.1-1.6-2.1-2.6-2.9c-1-0.8-2.2-1.4-3.5-1.7c-1.3-0.3-2.5-0.4-3.5-0.1c-1,0.3-1.9,0.7-2.7,1.5
			c-0.7,0.7-1.3,1.6-1.7,2.7c-0.4,1.1-0.6,2.3-0.6,3.6c0,1.3,0.2,2.6,0.6,4c0.4,1.3,0.9,2.5,1.7,3.6c0.7,1.1,1.6,2.1,2.7,2.9
			c1,0.8,2.2,1.4,3.5,1.7c1.3,0.3,2.5,0.4,3.5,0.1c1-0.3,1.9-0.7,2.6-1.4c0.7-0.7,1.3-1.6,1.7-2.7
			C289.1,281.7,289.3,280.5,289.3,279.2z"/>
		<path class="st0" d="M295.8,269.5l6,1.6c0.8,0.2,1.5,0.5,2.3,0.9c0.8,0.4,1.5,0.9,2.1,1.5c0.6,0.6,1.1,1.3,1.5,2.2
			c0.4,0.9,0.6,1.9,0.6,3c0,1.2-0.3,2.2-1,2.9c-0.7,0.7-1.5,1.1-2.6,1.1v0.1c1.3,0.5,2.4,1.4,3.3,2.6c0.9,1.2,1.3,2.7,1.3,4.3
			c0,0.9-0.2,1.8-0.5,2.5c-0.4,0.7-0.9,1.2-1.5,1.6c-0.6,0.4-1.4,0.6-2.4,0.6c-0.9,0.1-2-0.1-3.1-0.4l-6-1.6V269.5z M297.9,280.1
			l4.2,1.1c0.5,0.1,1,0.2,1.5,0.2c0.5,0,1-0.1,1.4-0.3c0.4-0.2,0.8-0.5,1-1c0.3-0.4,0.4-1,0.4-1.8c0-0.7-0.1-1.4-0.4-2
			c-0.3-0.6-0.6-1.1-1-1.5c-0.4-0.4-1-0.8-1.5-1.1c-0.6-0.3-1.2-0.5-1.9-0.7l-3.6-1V280.1z M297.9,290.9l3.8,1
			c0.7,0.2,1.5,0.3,2.1,0.3c0.7,0,1.3-0.1,1.8-0.3c0.5-0.2,0.9-0.6,1.2-1.1c0.3-0.5,0.5-1.1,0.5-1.9c0-1.5-0.5-2.7-1.4-3.7
			s-2.2-1.7-3.9-2.1l-4.2-1.1V290.9z"/>
		<path class="st0" d="M316.1,297.8l-2.1-0.6v-22.8l2.1,0.6V297.8z"/>
		<path class="st0" d="M323.5,297.7l9.5,2.5v2.1l-11.5-3.1v-22.8l2.1,0.6V297.7z"/>
		<path class="st0" d="M338.1,303.7l-2.1-0.6v-22.8l2.1,0.6V303.7z"/>
		<path class="st0" d="M345.6,303.6l10.9,2.9v2.1l-12.9-3.5v-22.8l12.6,3.4v2.1l-10.5-2.8v7.8l9.8,2.6v2.1l-9.8-2.6V303.6z"/>
		<path class="st0" d="M374.9,310.1L374.9,310.1l0.1-19.4l2.1,0.6v22.8l-2.6-0.7l-11.8-22.8l-0.1,0v19.6l-2.1-0.6v-22.8l2.6,0.7
			L374.9,310.1z"/>
		<path class="st0" d="M395.2,316L395.2,316l6.6-18l2.2,0.6l-7.8,20.7l-2.2-0.6l-7.7-24.9l2.2,0.6L395.2,316z"/>
		<path class="st0" d="M408.9,320.6l10.9,2.9v2.1l-12.9-3.5v-22.8l12.6,3.4v2.1l-10.5-2.8v7.8l9.8,2.6v2.1l-9.8-2.6V320.6z"/>
		<path class="st0" d="M425.9,327.2l-2.1-0.6v-22.8l6,1.6c1,0.3,1.9,0.6,2.8,1.1c0.9,0.4,1.6,1,2.2,1.6c0.6,0.6,1.1,1.4,1.4,2.3
			c0.3,0.9,0.5,1.9,0.5,3c0,0.8-0.1,1.6-0.4,2.2c-0.3,0.6-0.6,1.1-1.1,1.5c-0.5,0.4-1,0.6-1.6,0.8c-0.6,0.1-1.3,0.1-2.1,0l5.9,12.5
			l-2.5-0.7l-5.6-12.2l-3.4-0.9V327.2z M425.9,314.5l3.6,1c1.7,0.4,2.9,0.4,3.8,0c0.9-0.4,1.3-1.3,1.3-2.7c0-0.8-0.1-1.4-0.4-2
			c-0.2-0.6-0.6-1.1-1-1.5c-0.4-0.4-1-0.8-1.6-1.1c-0.6-0.3-1.3-0.6-2.1-0.8l-3.7-1V314.5z"/>
		<path class="st0" d="M445.9,329.4L445.9,329.4l5.1-18.3l2.5,0.7l5.1,21l0.1,0l5-18.3l2.2,0.6l-6,21.2l-2.4-0.6l-5.1-21l-0.1,0
			l-5.1,18.2l-2.4-0.6l-6-24.4l2.2,0.6L445.9,329.4z"/>
		<path class="st0" d="M468.4,338.6l-2.3-0.6l8.8-20.5l2,0.5l8.7,25.2l-2.3-0.6L481,336l-10.5-2.8L468.4,338.6z M471.3,331.2
			l8.9,2.4l-4.5-13.3L471.3,331.2z"/>
		<path class="st0" d="M490.6,342.5l9.5,2.5v2.1l-11.5-3.1v-22.8l2.1,0.6V342.5z"/>
		<path class="st0" d="M506.9,348.9l-2.1-0.6v-20.8l-6.8-1.8v-2.1l15.6,4.2v2.1l-6.8-1.8V348.9z"/>
		<path class="st0" d="M524.2,354.1c-1.5-0.4-2.8-1-3.8-1.9c-1-0.9-1.7-1.8-2.3-2.9c-0.6-1.1-1-2.1-1.2-3.3
			c-0.2-1.1-0.3-2.2-0.3-3.1v-14.3l2.1,0.6v14.1c0,0.9,0.1,1.8,0.3,2.8c0.2,0.9,0.5,1.8,0.9,2.6c0.4,0.8,1,1.5,1.7,2.1
			c0.7,0.6,1.6,1,2.6,1.3c1,0.3,1.9,0.3,2.6,0.1c0.7-0.2,1.3-0.6,1.7-1.2c0.4-0.6,0.7-1.3,0.9-2.1c0.2-0.8,0.3-1.7,0.3-2.6v-14.1
			l2.1,0.6v14.3c0,0.9-0.1,1.9-0.3,2.9c-0.2,1-0.6,1.9-1.2,2.6c-0.6,0.7-1.4,1.3-2.3,1.6S525.7,354.5,524.2,354.1z"/>
		<path class="st0" d="M551.5,357.5L551.5,357.5l0.1-19.4l2.1,0.6v22.8l-2.6-0.7l-11.8-22.8l-0.1,0v19.6l-2.1-0.6v-22.8l2.6,0.7
			L551.5,357.5z"/>
		<path class="st0" d="M574.4,348.3c-0.7-1-1.5-1.9-2.5-2.6c-1-0.7-2.1-1.3-3.4-1.6c-1.3-0.3-2.5-0.4-3.5-0.1
			c-1,0.3-1.9,0.7-2.6,1.5c-0.7,0.7-1.3,1.6-1.7,2.7c-0.4,1.1-0.6,2.3-0.6,3.6c0,1.3,0.2,2.6,0.6,4c0.4,1.3,1,2.5,1.7,3.6
			c0.7,1.1,1.6,2.1,2.6,2.9c1,0.8,2.2,1.4,3.5,1.7c1.1,0.3,2.2,0.4,3.2,0.4c1,0,1.7-0.2,2.3-0.4V357l-4.7-1.3v-2.1l6.8,1.8v10.3
			c-1.1,0.5-2.3,0.7-3.6,0.7c-1.3,0-2.6-0.2-4-0.5c-1.5-0.4-2.9-1.1-4.2-2c-1.3-0.9-2.4-2.1-3.4-3.4c-0.9-1.3-1.7-2.8-2.2-4.4
			c-0.5-1.6-0.8-3.3-0.8-5c0-1.7,0.3-3.3,0.8-4.6c0.5-1.3,1.3-2.4,2.2-3.2c0.9-0.8,2.1-1.3,3.4-1.6c1.3-0.3,2.7-0.2,4.2,0.2
			c1.6,0.4,3,1.1,4.2,2c1.2,0.9,2.2,1.9,3.1,3.1L574.4,348.3z"/>
	</g>
	<polygon class="st1" points="576.1,238.7 213.1,141.4 213.1,105.2 576.1,202.4 	"/>
	<polygon class="st1" points="576.1,283.8 213.1,186.6 213.1,150.3 576.1,247.5 	"/>
	<polygon class="st1" points="576.1,329 213.1,231.7 213.1,195.4 576.1,292.7 	"/>
</g>
<g>
	<path class="st1" d="M19,317.5l15-2.6c2.8-0.5,5.6-0.6,8.4-0.4c2.8,0.3,5.4,0.9,7.6,2.1c2.3,1.1,4.1,2.7,5.5,4.7
		c1.4,2,2.1,4.5,2.1,7.5c0,3-0.7,5.8-2.1,8.3s-3.2,4.7-5.5,6.6c-2.3,1.9-4.8,3.5-7.6,4.8c-2.8,1.3-5.6,2.1-8.4,2.6l-15,2.6V317.5z
		 M23.6,349.7l9.1-1.6c3.4-0.6,6.4-1.5,8.9-2.8c2.5-1.3,4.6-2.8,6.3-4.5c1.7-1.7,2.9-3.5,3.7-5.4c0.8-1.9,1.2-3.8,1.2-5.7
		c0-1.9-0.4-3.6-1.2-5.3c-0.8-1.6-2.1-3-3.7-4.1c-1.7-1.1-3.7-1.8-6.3-2.3c-2.5-0.4-5.5-0.3-8.9,0.3l-9.1,1.6V349.7z"/>
	<path class="st1" d="M65.4,345.6l-5,0.9l19.5-39.7l4.5-0.8l19.4,32.9l-5.1,0.9l-5-8.7l-23.3,4.1L65.4,345.6z M72,331.5l19.9-3.5
		L82,310.5L72,331.5z"/>
	<path class="st1" d="M110.3,301.4l4.6-0.8v15.7l24.6-4.3v-15.7l4.6-0.8v36.3l-4.6,0.8v-17.2l-24.6,4.3v17.2l-4.6,0.8V301.4z"/>
	<path class="st1" d="M178.4,319.4L178.4,319.4l15.2-32.7l7-1.2v36.3l-4.6,0.8V291l-0.1,0l-16.3,34.4l-2.4,0.4l-16.3-28.6l-0.1,0
		v31.5l-4.6,0.8v-36.3l7-1.2L178.4,319.4z"/>
</g>
<polygon class="st1" points="200.4,108 18.9,138.6 18.9,138.3 200.4,104.9 "/>
<polygon class="st1" points="200.4,114.6 18.9,145.2 18.9,145 200.4,111.6 "/>
<polygon class="st1" points="200.4,121.3 18.9,151.9 18.9,151.6 200.4,118.2 "/>
<polygon class="st1" points="200.4,127.9 18.9,158.5 18.9,158.3 200.4,124.9 "/>
<polygon class="st1" points="200.4,134.6 18.9,165.2 18.9,164.9 200.4,131.5 "/>
<polygon class="st1" points="200.4,141.2 18.9,171.8 18.9,171.6 200.4,138.2 "/>
<g>
	<polygon class="st1" points="200.4,153.1 18.9,183.7 18.9,183.4 200.4,150.1 	"/>
	<polygon class="st1" points="200.4,159.7 18.9,190.3 18.9,190.1 200.4,156.7 	"/>
	<polygon class="st1" points="200.4,166.4 18.9,197 18.9,196.8 200.4,163.4 	"/>
	<polygon class="st1" points="200.4,173 18.9,203.7 18.9,203.4 200.4,170 	"/>
	<polygon class="st1" points="200.4,179.7 18.9,210.3 18.9,210.1 200.4,176.7 	"/>
	<polygon class="st1" points="200.4,186.4 18.9,217 18.9,216.7 200.4,183.3 	"/>
</g>
<g>
	<polygon class="st1" points="200.4,198.2 18.9,228.8 18.9,228.6 200.4,195.2 	"/>
	<polygon class="st1" points="200.4,204.9 18.9,235.5 18.9,235.2 200.4,201.8 	"/>
	<polygon class="st1" points="200.4,211.5 18.9,242.1 18.9,241.9 200.4,208.5 	"/>
	<polygon class="st1" points="200.4,218.2 18.9,248.8 18.9,248.5 200.4,215.1 	"/>
	<polygon class="st1" points="200.4,224.8 18.9,255.4 18.9,255.2 200.4,221.8 	"/>
	<polygon class="st1" points="200.4,231.5 18.9,262.1 18.9,261.8 200.4,228.5 	"/>
</g>
<polygon class="st1" points="200.4,243.3 18.9,273.9 18.9,273.7 200.4,240.3 "/>
<polygon class="st1" points="200.4,250 18.9,280.6 18.9,280.4 200.4,247 "/>
<polygon class="st1" points="200.4,256.6 18.9,287.3 18.9,287 200.4,253.6 "/>
<polygon class="st1" points="200.4,263.3 18.9,293.9 18.9,293.7 200.4,260.3 "/>
<polygon class="st1" points="200.4,270 18.9,300.6 18.9,300.3 200.4,266.9 "/>
<polygon class="st1" points="200.4,276.6 18.9,307.2 18.9,307 200.4,273.6 "/>
<g>
	<polygon class="st1" points="193.1,17.5 19.7,118.3 176.6,91.8 55.3,105.2 	"/>
	<polygon class="st1" points="193.1,17.5 505.9,111.6 573.4,184.7 499.7,118.2 	"/>
	<polygon class="st1" points="488.5,163.4 206.6,86.6 194.6,22.7 210.6,83.2 	"/>
</g>
</svg>
